<?xml version="1.0" encoding="UTF-8"?>
<!DOCTYPE svg PUBLIC "-//W3C//DTD SVG 1.1//EN" "http://www.w3.org/Graphics/SVG/1.1/DTD/svg11.dtd">
<!-- Creator: CorelDRAW X8 -->
<svg xmlns="http://www.w3.org/2000/svg" xml:space="preserve" width="1.92333in" height="1.96528in" version="1.1" style="shape-rendering:geometricPrecision; text-rendering:geometricPrecision; image-rendering:optimizeQuality; fill-rule:evenodd; clip-rule:evenodd"
viewBox="0 0 1930 1972"
 xmlns:xlink="http://www.w3.org/1999/xlink">
 <defs>
  <style type="text/css">
   <![CDATA[
    .fil1 {fill:#FFA626;fill-rule:nonzero}
    .fil0 {fill:#FF7F00;fill-rule:nonzero}
    .fil3 {fill:#FF330D;fill-rule:nonzero}
    .fil5 {fill:#FF1926;fill-rule:nonzero}
    .fil2 {fill:#BF0000;fill-rule:nonzero}
    .fil4 {fill:#4000FF;fill-rule:nonzero}
    .fil6 {fill:#662D91;fill-rule:nonzero}
   ]]>
  </style>
 </defs>
 <g id="Layer_x0020_1">
  <metadata id="CorelCorpID_0Corel-Layer"/>
  <polygon class="fil0" points="815,949 506,1115 765,1600 964,1228 "/>
  <polygon class="fil1" points="309,3 0,168 458,1026 768,860 "/>
  <polygon class="fil2" points="1621,0 1475,272 1784,438 1930,165 1930,165 1621,0 "/>
  <polygon class="fil3" points="1278,642 964,1228 1163,1600 1587,807 "/>
  <polygon class="fil4" points="765,1600 964,1972 1163,1600 964,1228 "/>
  <polygon class="fil5" points="1325,553 1634,718 1737,526 1428,361 "/>
  <polygon class="fil0" points="815,949 506,1115 765,1600 964,1228 "/>
  <polygon class="fil1" points="309,3 0,168 458,1026 768,860 "/>
  <polygon class="fil2" points="1621,0 1475,272 1784,438 1930,165 1930,165 1621,0 "/>
  <polygon class="fil3" points="1278,642 964,1228 1163,1600 1587,807 "/>
  <polygon class="fil6" points="765,1600 964,1972 1163,1600 964,1228 "/>
  <polygon class="fil5" points="1325,553 1634,718 1737,526 1428,361 "/>
 </g>
</svg>
